# xmcd
#
# Track frame offsets:
#	150
#	12035
#	27594
#	42836
#	58986
#	74884
#	90647
#	107503
#	123896
#	150064
#	169530
#	185742
#	208938
#	228135
#	245105
#	261983
#	277953
#	299031
#	312264
#	327018
#
# Disc length: 4580 seconds
#
# Revision: 0
# Processed by: cddbd v1.5.1PL0 Copyright (c) Steve Scherf et al.
# Submitted via: audiograbber 1.83.01
#
DISCID=2211e214
DTITLE=Demis Rousos - The best
DYEAR=1900
DGENRE=
TTITLE0=from...
TTITLE1=santa...
TTITLE2=mamy...
TTITLE3=gubsy...
TTITLE4=rebecca
TTITLE5=its five...
TTITLE6=guantanamera
TTITLE7=the welding...
TTITLE8=la vie...
TTITLE9=summer...
TTITLE10=let be...
TTITLE11=stand...
TTITLE12=lost...
TTITLE13=shadows...
TTITLE14=loving
TTITLE15=quand...
TTITLE16=Marie...
TTITLE17=Perdoname.
TTITLE18=Marlene.
TTITLE19=Trici, trici
EXTD=
EXTT0=
EXTT1=
EXTT2=
EXTT3=
EXTT4=
EXTT5=
EXTT6=
EXTT7=
EXTT8=
EXTT9=
EXTT10=
EXTT11=
EXTT12=
EXTT13=
EXTT14=
EXTT15=
EXTT16=
EXTT17=
EXTT18=
EXTT19=
PLAYORDER=
